<svg xmlns="http://www.w3.org/2000/svg" xmlns:xlink="http://www.w3.org/1999/xlink" width="512" zoomAndPan="magnify" viewBox="0 0 384 383.999986" height="512" preserveAspectRatio="xMidYMid meet" version="1.0"><defs><g/></defs><g fill="#004aad" fill-opacity="1"><g transform="translate(35.485317, 241.499981)"><g><path d="M 95.765625 -148.5 L 95.765625 -118.796875 L 44.640625 -118.796875 L 44.640625 -89.28125 L 93.59375 -89.28125 L 93.59375 -59.578125 L 44.640625 -59.578125 L 44.640625 -29.703125 L 95.765625 -29.703125 L 95.765625 0 L 10.796875 0 L 10.796875 -148.5 Z M 95.765625 -148.5 "/></g></g></g><g fill="#004aad" fill-opacity="1"><g transform="translate(122.965321, 241.499981)"><g><path d="M 57.234375 0 L -5.046875 -148.5 L 33.125 -148.5 L 70.5625 -50.9375 L 108 -148.5 L 146.15625 -148.5 L 83.875 0 Z M 57.234375 0 "/></g></g></g><g fill="#004aad" fill-opacity="1"><g transform="translate(247.165316, 241.499981)"><g><path d="M 44.640625 -148.5 L 44.640625 0 L 10.796875 0 L 10.796875 -148.5 Z M 44.640625 -148.5 "/></g></g></g><g fill="#004aad" fill-opacity="1"><g transform="translate(285.685325, 241.499981)"><g><path d="M 31.3125 -38.515625 C 37.070312 -38.515625 41.960938 -36.503906 45.984375 -32.484375 C 50.003906 -28.460938 52.015625 -23.570312 52.015625 -17.8125 C 52.015625 -12.175781 50.003906 -7.347656 45.984375 -3.328125 C 41.960938 0.691406 37.070312 2.703125 31.3125 2.703125 C 25.675781 2.703125 20.847656 0.691406 16.828125 -3.328125 C 12.804688 -7.347656 10.796875 -12.175781 10.796875 -17.8125 C 10.796875 -23.570312 12.804688 -28.460938 16.828125 -32.484375 C 20.847656 -36.503906 25.675781 -38.515625 31.3125 -38.515625 Z M 31.3125 -38.515625 "/></g></g></g></svg>